<svg><path d="M0 0 L-9 0 L-9 -6 L-19 -6 L-19 -14 L-22 -14 L-22 -22 L-29 -22 L-29 -27 L-39 -27 L-39 -30 L-35 -30 L-35 -38 L-31 -38 L-31 -44 L-27 -44 L-27 -37 L-24 -37 L-24 -30 L-19 -30 L-19 -39 L-10 -39 L-10 -42 L0 -42 L0 -50 L-7 -50 L-7 -57 L-9 -57 L-9 -50 L-16 -50 L-16 -54 L-19 -54 L-19 -59 L-26 -59 L-26 -54 L-30 -54 L-30 -50 L-34 -50 L-34 -62 L-31 -62 L-31 -65 L-24 -65 L-24 -74 L-20 -74 L-20 -62 L-14 -62 L-14 -74 L-6 -74 L-6 -62 L0 -62 L0 -74 L-3 -74 L-3 -77 L-9 -77 L-9 -79 L-18 -79 L-18 -84 L-22 -84 L-22 -90 L-31 -90 L-31 -93 L-40 -93 L-40 -102 L-34 -102 L-34 -105 L-28 -105 L-28 -114 L-18 -114 L-18 -117 L-21 -117 L-21 -124 L-33 -124 L-33 -130 L-38 -130 L-38 -119 L-41 -119 L-41 -130 L-46 -130 L-46 -135 L-54 -135 L-54 -144 L-57 -144 L-57 -147 L-46 -147 L-46 -152 L-49 -152 L-49 -155 L-59 -155 L-59 -158 L-70 -158 L-70 -161 L-61 -161 L-61 -168 L-54 -168 L-54 -176 L-51 -176 L-51 -172 L-41 -172 L-41 -168 L-51 -168 L-51 -163 L-44 -163 L-44 -161 L-38 -161 L-38 -172 L-33 -172 L-33 -181 L-26 -181 L-26 -175 L-30 -175 L-30 -164 L-26 -164 L-26 -161 L-21 -161 L-21 -170 L-18 -170 L-18 -176 L-13 -176 L-13 -179 L-21 -179 L-21 -186 L-13 -186 L-13 -189 L-10 -189 L-10 -176 L-4 -176 L-4 -183 L0 -183 L0 -190 L8 -190 L8 -197 L11 -197 L11 -209 L19 -209 L19 -221 L27 -221 L27 -225 L38 -225 L38 -229 L44 -229 L44 -224 L52 -224 L52 -216 L58 -216 L58 -229 L63 -229 L63 -220 L70 -220 L70 -215 L76 -215 L76 -209 L82 -209 L82 -205 L87 -205 L87 -196 L93 -196 L93 -207 L101 -207 L101 -196 L104 -196 L104 -205 L111 -205 L111 -202 L107 -202 L107 -192 L98 -192 L98 -188 L90 -188 L90 -192 L82 -192 L82 -184 L91 -184 L91 -178 L96 -178 L96 -185 L101 -185 L101 -180 L112 -180 L112 -185 L116 -185 L116 -188 L119 -188 L119 -196 L128 -196 L128 -191 L136 -191 L136 -196 L140 -196 L140 -206 L131 -206 L131 -209 L119 -209 L119 -215 L129 -215 L129 -221 L126 -221 L126 -219 L115 -219 L115 -208 L110 -208 L110 -212 L101 -212 L101 -221 L96 -221 L96 -229 L100 -229 L100 -235 L104 -235 L104 -241 L113 -241 L113 -235 L121 -235 L121 -241 L128 -241 L128 -245 L138 -245 L138 -254 L145 -254 L145 -264 L149 -264 L149 -271 L151 -271 L151 -278 L143 -278 L143 -275 L141 -275 L141 -262 L133 -262 L133 -269 L138 -269 L138 -273 L133 -273 L133 -278 L125 -278 L125 -268 L117 -268 L117 -278 L111 -278 L111 -273 L104 -273 L104 -266 L98 -266 L98 -278 L93 -278 L93 -282 L87 -282 L87 -285 L99 -285 L99 -290 L102 -290 L102 -293 L106 -293 L106 -298 L103 -298 L103 -302 L97 -302 L97 -297 L92 -297 L92 -302 L87 -302 L87 -309 L93 -309 L93 -314 L101 -314 L101 -322 L104 -322 L104 -317 L109 -317 L109 -310 L113 -310 L113 -303 L115 -303 L115 -298 L123 -298 L123 -292 L130 -292 L130 -296 L137 -296 L137 -300 L130 -300 L130 -306 L138 -306 L138 -309 L140 -309 L140 -314 L143 -314 L143 -322 L151 -322 L151 -329 L158 -329 L158 -333 L162 -333 L162 -329 L170 -329 L170 -324 L173 -324 L173 -316 L178 -316 L178 -311 L187 -311 L187 -308 L183 -308 L183 -298 L179 -298 L179 -293 L173 -293 L173 -298 L166 -298 L166 -291 L160 -291 L160 -287 L172 -287 L172 -278 L160 -278 L160 -271 L165 -271 L165 -266 L171 -266 L171 -259 L176 -259 L176 -248 L187 -248 L187 -245 L184 -245 L184 -235 L177 -235 L177 -245 L173 -245 L173 -237 L169 -237 L169 -230 L159 -230 L159 -224 L161 -224 L161 -219 L173 -219 L173 -209 L184 -209 L184 -203 L188 -203 L188 -194 L194 -194 L194 -190 L200 -190 L200 -177 L195 -177 L195 -171 L190 -171 L190 -162 L186 -162 L186 -171 L180 -171 L180 -164 L177 -164 L177 -152 L167 -152 L167 -147 L159 -147 L159 -141 L152 -141 L152 -131 L144 -131 L144 -125 L137 -125 L137 -121 L131 -121 L131 -116 L126 -116 L126 -107 L116 -107 L116 -95 L109 -95 L109 -90 L102 -90 L102 -84 L94 -84 L94 -96 L87 -96 L87 -101 L83 -101 L83 -107 L70 -107 L70 -105 L63 -105 L63 -97 L58 -97 L58 -95 L63 -95 L63 -88 L58 -88 L58 -83 L56 -83 L56 -77 L44 -77 L44 -75 L37 -75 L37 -70 L35 -70 L35 -61 L23 -61 L23 -58 L28 -58 L28 -52 L30 -52 L30 -46 L43 -46 L43 -37 L48 -37 L48 -34 L55 -34 L55 -30 L64 -30 L64 -22 L66 -22 L66 -30 L75 -30 L75 -23 L82 -23 L82 -26 L87 -26 L87 -34 L96 -34 L96 -44 L87 -44 L87 -50 L96 -50 L96 -55 L104 -55 L104 -52 L112 -52 L112 -42 L104 -42 L104 -35 L109 -35 L109 -26 L114 -26 L114 -23 L122 -23 L122 -32 L134 -32 L134 -40 L138 -40 L138 -45 L144 -45 L144 -50 L136 -50 L136 -54 L131 -54 L131 -50 L127 -50 L127 -58 L134 -58 L134 -69 L138 -69 L138 -58 L144 -58 L144 -64 L154 -64 L154 -58 L159 -58 L159 -71 L165 -71 L165 -58 L168 -58 L168 -53 L165 -53 L165 -48 L160 -48 L160 -53 L154 -53 L154 -45 L158 -45 L158 -40 L161 -40 L161 -32 L168 -32 L168 -23 L179 -23 L179 -27 L181 -27 L181 -33 L173 -33 L173 -39 L181 -39 L181 -48 L186 -48 L186 -42 L189 -42 L189 -29 L191 -29 L191 -23 L200 -23 L200 -16 L195 -16 L195 -9 L189 -9 L189 -16 L184 -16 L184 -9 L178 -9 L178 -4 L182 -4 L182 4 L178 4 L178 10 L174 10 L174 -1 L167 -1 L167 -7 L164 -7 L164 -12 L157 -12 L157 -6 L149 -6 L149 -1 L159 -1 L159 4 L149 4 L149 8 L141 8 L141 11 L146 11 L146 24 L141 24 L141 36 L149 36 L149 48 L144 48 L144 61 L138 61 L138 48 L131 48 L131 46 L125 46 L125 43 L116 43 L116 31 L125 31 L125 19 L123 19 L123 10 L115 10 L115 6 L108 6 L108 3 L119 3 L119 -5 L108 -5 L108 -9 L102 -9 L102 -4 L98 -4 L98 0 L102 0 L102 6 L95 6 L95 -1 L93 -1 L93 -12 L87 -12 L87 -2 L79 -2 L79 7 L67 7 L67 11 L61 11 L61 -2 L55 -2 L55 10 L46 10 L46 20 L49 20 L49 26 L62 26 L62 20 L70 20 L70 31 L67 31 L67 36 L61 36 L61 30 L58 30 L58 36 L52 36 L52 31 L46 31 L46 38 L40 38 L40 34 L32 34 L32 28 L26 28 L26 32 L19 32 L19 38 L8 38 L8 31 L4 31 L4 25 L11 25 L11 19 L4 19 L4 10 L0 10 L0 0 Z"/></svg>